<svg xmlns="http://www.w3.org/2000/svg"><symbol id="add-to-bag" viewBox="0 0 256 256"><path d="M135.3 204.5a67.2 67.2 0 0 1 67.2-67.2l5.2.3V65H156V44.3a41.4 41.4 0 0 0-82.7 0V65H21.6v186h132.5a66.9 66.9 0 0 1-18.8-46.5zM83.6 44.3a31.1 31.1 0 0 1 62.1 0V65H83.6zM42.3 85.7h31v15.5a5.2 5.2 0 0 0 10.3 0V85.7h62.1v15.5a5.2 5.2 0 0 0 10.3 0V85.7h31V127H42.3zM202.5 158a46.5 46.5 0 1 0 46.5 46.5 46.5 46.5 0 0 0-46.5-46.5zm25.8 51.7h-20.6v20.6h-10.4v-20.6h-20.6v-10.4h20.6v-20.6h10.4v20.6h20.6z"/></symbol><symbol id="magnifying" viewBox="0 0 256 256"><path d="M101.7 196.7a87 87 0 1 1 87-87 87.1 87.1 0 0 1-87 87zm0-144.3a57.3 57.3 0 1 0 57.3 57.3 57.4 57.4 0 0 0-57.3-57.3zm88.1 118.4a107 107 0 0 1-29 28.3l51.9 51.9 28.7-28.7z"/></symbol><symbol id="shopping-bag" viewBox="0 0 256 256"><path d="M169.7 64.4V43.5a41.7 41.7 0 1 0-83.4 0v20.9H34.1v187.8h187.8V64.4zm-73-20.9a31.3 31.3 0 0 1 62.6 0v20.9H96.7zM201 127H55V85.3h31.3v15.6a5.2 5.2 0 1 0 10.4 0V85.3h62.6v15.6a5.2 5.2 0 0 0 10.4 0V85.3H201z"/></symbol><symbol id="hamburger-close" viewBox="0 0 256 256"><path stroke="#000" stroke-miterlimit="10" stroke-width="20" d="M67.1 71.9l123.1 127.5m0-127.5L67.1 199.4"/></symbol><symbol id="hamburger-" viewBox="0 0 256 256"><path stroke="#000" stroke-miterlimit="10" stroke-width="20" d="M40 98.5h177.3M39.4 135.6h177.2M39.4 172.7h177.2"/></symbol></svg>