<?xml version="1.0" encoding="utf-8"?>
<!-- Generator: Adobe Illustrator 24.1.0, SVG Export Plug-In . SVG Version: 6.00 Build 0)  -->
<svg version="1.1" id="Layer_1" xmlns="http://www.w3.org/2000/svg" xmlns:xlink="http://www.w3.org/1999/xlink" x="0px" y="0px"
	 viewBox="0 0 123.1 175.3" style="enable-background:new 0 0 123.1 175.3;" xml:space="preserve">
<style type="text/css">
	.st0{enable-background:new    ;}
</style>
<path d="M12.8,8.5h31.3v128.6h69.5v28.5H12.8L12.8,8.5z"/>
<g class="st0">
	<path d="M50.5,8.5h24.4v6.3H57.8v7.5h16.7v6.3H57.8v8h17.1V43H50.5V8.5z"/>
</g>
<g class="st0">
	<path d="M103.1,37H87.6l-2.2,6h-8.1L90.8,8.5h9.2L113.3,43h-8L103.1,37z M89.6,30.7h11.4l-5.7-15.8L89.6,30.7z"/>
</g>
<g class="st0">
	<path d="M53.1,75.4c2.4,2.5,6.2,4.7,11,4.7c4,0,6-1.9,6-3.9c0-2.6-3-3.5-7-4.4c-5.6-1.3-12.9-2.8-12.9-10.6c0-5.7,5-10.4,13.1-10.4
		c5.5,0,10,1.7,13.5,4.8L72.7,61c-2.8-2.6-6.5-3.8-9.9-3.8c-3.3,0-5.1,1.4-5.1,3.5c0,2.3,2.9,3.1,6.9,4c5.7,1.3,12.9,3,12.9,10.7
		c0,6.3-4.5,11.1-13.8,11.1c-6.6,0-11.4-2.2-14.6-5.5L53.1,75.4z"/>
	<path d="M106.2,71.4H89.9v14.5h-7.3V51.4h7.3v13.6h16.3V51.4h7.4v34.5h-7.4V71.4z"/>
</g>
<g class="st0">
	<path d="M50.5,94.3h24.4v6.3H57.8v7.5h16.7v6.3H57.8v8h17.1v6.4H50.5V94.3z"/>
</g>
<g class="st0">
	<path d="M81.5,94.3h13.6c10.8,0,18.3,6.9,18.3,17.3s-7.5,17.2-18.3,17.2H81.5V94.3z M95.1,122.3c6.8,0,10.8-4.9,10.8-10.8
		c0-6.1-3.7-10.8-10.8-10.8h-6.3v21.6H95.1z"/>
</g>
</svg>
