<?xml version="1.0" encoding="utf-8"?>
<!-- Generator: Adobe Illustrator 24.1.0, SVG Export Plug-In . SVG Version: 6.00 Build 0)  -->
<svg version="1.1" id="Layer_1" xmlns="http://www.w3.org/2000/svg" xmlns:xlink="http://www.w3.org/1999/xlink" x="0px" y="0px"
	 viewBox="0 0 4.6 7.2" style="enable-background:new 0 0 4.6 7.2;" xml:space="preserve">
<style type="text/css">
	.st0{enable-background:new    ;}
</style>
<path d="M0.4,0.9h1.2v4.8h2.6v1.1H0.4V0.9z"/>
<g class="st0">
	<path d="M1.8,0.9h0.9v0.2H2.1v0.3h0.6v0.2H2.1V2h0.6v0.2H1.8V0.9z"/>
</g>
<g class="st0">
	<path d="M3.8,2H3.2L3.1,2.2H2.8l0.5-1.3h0.3l0.5,1.3H3.9L3.8,2z M3.3,1.8h0.4L3.5,1.2L3.3,1.8z"/>
</g>
<g class="st0">
	<path d="M1.9,3.5C2,3.6,2.1,3.6,2.3,3.6c0.2,0,0.2-0.1,0.2-0.1c0-0.1-0.1-0.1-0.3-0.2c-0.2,0-0.5-0.1-0.5-0.4
		c0-0.2,0.2-0.4,0.5-0.4c0.2,0,0.4,0.1,0.5,0.2L2.6,2.9C2.5,2.8,2.4,2.8,2.3,2.8c-0.1,0-0.2,0.1-0.2,0.1C2.1,3,2.2,3,2.3,3.1
		c0.2,0,0.5,0.1,0.5,0.4c0,0.2-0.2,0.4-0.5,0.4C2,3.9,1.9,3.8,1.7,3.7L1.9,3.5z"/>
	<path d="M3.9,3.3H3.3v0.5H3V2.6h0.3v0.5h0.6V2.6h0.3v1.3H3.9V3.3z"/>
</g>
<g class="st0">
	<path d="M1.8,4.2h0.9v0.2H2.1v0.3h0.6v0.2H2.1v0.3h0.6v0.2H1.8V4.2z"/>
</g>
<g class="st0">
	<path d="M3,4.2h0.5c0.4,0,0.7,0.3,0.7,0.7S3.9,5.5,3.5,5.5H3V4.2z M3.5,5.2c0.3,0,0.4-0.2,0.4-0.4c0-0.2-0.1-0.4-0.4-0.4H3.2v0.8
		C3.2,5.2,3.5,5.2,3.5,5.2z"/>
</g>
</svg>
